<?xml version="1.0" encoding="UTF-8" standalone="no"?>
<!-- Created with Inkscape (http://www.inkscape.org/) -->

<svg
   xmlns:dc="http://purl.org/dc/elements/1.1/"
   xmlns:cc="http://creativecommons.org/ns#"
   xmlns:rdf="http://www.w3.org/1999/02/22-rdf-syntax-ns#"
   xmlns:svg="http://www.w3.org/2000/svg"
   xmlns="http://www.w3.org/2000/svg"
   xmlns:sodipodi="http://sodipodi.sourceforge.net/DTD/sodipodi-0.dtd"
   xmlns:inkscape="http://www.inkscape.org/namespaces/inkscape"
   width="297mm"
   height="210mm"
   viewBox="0 0 297 210"
   version="1.1"
   id="svg8"
   inkscape:version="0.92.3 (2405546, 2018-03-11)"
   sodipodi:docname="icaps_nancy_logo.svg">
  <defs
     id="defs2" />
  <sodipodi:namedview
     id="base"
     pagecolor="#ffffff"
     bordercolor="#666666"
     borderopacity="1.0"
     inkscape:pageopacity="0.0"
     inkscape:pageshadow="2"
     inkscape:zoom="0.70710678"
     inkscape:cx="649.06017"
     inkscape:cy="362.16907"
     inkscape:document-units="mm"
     inkscape:current-layer="layer1"
     showgrid="false"
     inkscape:snap-global="false"
     inkscape:window-width="1920"
     inkscape:window-height="967"
     inkscape:window-x="2560"
     inkscape:window-y="24"
     inkscape:window-maximized="1" />
  <metadata
     id="metadata5">
    <rdf:RDF>
      <cc:Work
         rdf:about="">
        <dc:format>image/svg+xml</dc:format>
        <dc:type
           rdf:resource="http://purl.org/dc/dcmitype/StillImage" />
        <dc:title />
      </cc:Work>
    </rdf:RDF>
  </metadata>
  <g
     inkscape:label="Layer 1"
     inkscape:groupmode="layer"
     id="layer1"
     transform="translate(0,-87)">
    <path
       style="fill:#e64a19;fill-opacity:1;stroke:#e64a19;stroke-width:0.26458332px;stroke-linecap:butt;stroke-linejoin:miter;stroke-opacity:0"
       d="m 215.65693,164.29144 c 0,0 -10.90114,-9.80338 -25.49135,-17.90444 -14.5902,-8.10105 -25.35771,-12.82631 -53.50566,-18.38127 -14.07398,-2.77748 -29.02344,-5.31652 -54.180497,-0.61652 -25.157048,4.70001 -35.190073,11.23747 -47.983788,22.33671 -26.836311,23.8125 -17.254216,62.71896 4.556681,81.26488 21.810897,18.54592 34.072366,22.59704 46.941774,28.15106 12.869404,5.55402 28.54078,8.71506 28.54078,8.71506 0,0 -38.950536,-24.37391 -48.777915,-32.68939 -9.82738,-8.31547 -25.19513,-21.75772 -25.27855,-39.83618 -0.10128,-21.9495 13.18331,-33.46433 28.302359,-41.02385 15.119046,-7.55953 38.397006,-13.07261 66.367246,-10.0488 27.97024,3.02381 37.04166,4.15774 51.40476,8.31548 14.36309,4.15774 29.10416,11.71726 29.10416,11.71726 z"
       id="path1437"
       inkscape:connector-curvature="0"
       sodipodi:nodetypes="czszczzcsssssc" />
    <path
       style="fill:#000000;fill-opacity:0.995283;stroke:#000000;stroke-width:0.26458332px;stroke-linecap:butt;stroke-linejoin:miter;stroke-opacity:1"
       d="m 77.642007,201.13954 c 0,0 -12.095239,-5.29167 -17.575892,-18.52083 -5.480656,-13.22917 -5.858631,-24.75744 -2.456846,-34.58483 3.401785,-9.82737 15.686013,-20.97767 23.434523,-26.26934 7.748514,-5.29167 20.221718,-10.58333 26.836308,-12.6622 6.61458,-2.07887 24.37946,-5.66965 24.37946,-5.66965 0,0 -21.35565,8.12649 -31.37202,13.60715 -10.016366,5.48065 -20.41071,15.68601 -27.025293,25.3244 -6.614584,9.63839 -9.827382,19.65477 -9.543901,28.5372 0.291618,9.13737 1.228422,13.60715 5.197172,19.84375 3.96875,6.23661 8.126489,10.39435 8.126489,10.39435 z"
       id="path1439"
       inkscape:connector-curvature="0"
       sodipodi:nodetypes="csssscssssc" />
    <path
       style="fill:#000000;fill-opacity:0.995283;stroke:#000000;stroke-width:0.26458332px;stroke-linecap:butt;stroke-linejoin:miter;stroke-opacity:1"
       d="m 101.65256,229.74666 0.13332,-4.27623 -1.60352,-2.6727 -0.40101,-8.28529 c 0,0 0.60152,0.33377 0.60152,-0.53485 0,-0.86863 -0.60152,-1.60352 -0.60152,-1.60352 l -1.46968,-0.0667 -0.13384,-1.26969 c 0,0 1.40301,0.33419 1.40301,-0.93535 0,-1.26952 -1.46967,-1.00252 -1.46967,-1.00252 0,0 0.20035,-1.06892 -0.40101,-1.40301 -0.60136,-0.33408 -0.86868,-0.13333 -0.86868,-0.13333 l 0.0667,-1.06918 c 0,0 1.06902,-0.86885 1.13584,-1.4702 0.0668,-0.60136 -1.20251,-1.33635 -1.20251,-1.33635 l -0.0667,-2.87321 c 0,0 0.84078,-0.12353 0.85215,-0.56224 0.0114,-0.43872 -0.98599,-0.50695 -0.98599,-0.50695 l 0.0667,-3.67471 c 0,0 0.98611,-0.56099 1.01802,-1.11207 0.0319,-0.55107 -1.06748,0.0117 -1.08469,-0.55862 -0.0172,-0.57031 0.17991,-0.68725 0.19948,-1.31827 0.0196,-0.63102 -0.96171,-1.1343 -0.96171,-1.1343 l -0.10612,-31.00793 c 0,0 1.06904,-0.18169 1.10245,-0.71623 0.0334,-0.53453 -0.50126,-0.86868 -0.50126,-0.86868 v -1.60352 c 0,0 0.40106,-0.33406 0.60151,-0.56792 0.20045,-0.23386 0.20012,-1.43697 0.0331,-1.50379 -0.16704,-0.0668 -1.16944,-0.0331 -1.16944,-0.0331 l 0.0336,-1.60352 3.00705,-4.10931 0.8015,-0.0336 0.0336,-1.93787 h -0.6351 c 0,0 0.65584,-1.69277 0.75034,-3.15743 0.0945,-1.46465 0.0713,-3.07113 0.0713,-3.07113 l 1.11001,-0.0238 -0.0233,-1.62987 -1.39423,-0.047 c 0,0 -0.58076,-0.55622 -0.94826,-0.58963 -0.36749,-0.0334 -1.13585,0 -1.13585,0 0,0 0.30086,-0.96904 0.0336,-1.36994 -0.26727,-0.40091 -0.86868,-0.43408 -0.86868,-0.43408 v -1.80454 c 0,0 0.66785,0.0672 1.36943,-0.40049 0.70158,-0.46772 1.03696,-1.35436 0.33435,-2.23863 -0.70262,-0.88427 -3.85772,-3.35897 -3.85772,-3.35897 0,0 -3.396389,2.8957 -3.826565,3.35896 -0.434311,0.46772 -0.367236,1.77091 0.334346,2.23863 0.701583,0.4677 1.369944,0.40049 1.369944,0.40049 v 1.80454 c 0,0 -0.601414,0.0332 -0.868683,0.43408 -0.267266,0.4009 0.03307,1.36994 0.03307,1.36994 0,0 -0.768352,-0.0334 -1.135848,0 -0.367496,0.0334 -0.948261,0.58963 -0.948261,0.58963 l -1.393714,0.047 -0.02376,1.62987 1.110525,0.0238 c 0,0 -0.02368,1.60648 0.0708,3.07113 0.0945,1.46466 0.750343,3.15743 0.750343,3.15743 h -0.635103 l 0.03359,1.93787 0.802018,0.0336 3.006534,4.10931 0.03359,1.60352 c 0,0 -1.002393,-0.0337 -1.16944,0.0331 -0.167039,0.0668 -0.16686,1.26993 0.03359,1.50379 0.200454,0.23386 0.600996,0.56792 0.600996,0.56792 v 1.60352 c 0,0 -0.534154,0.33415 -0.500745,0.86868 0.03341,0.53454 1.113626,0.71623 1.113626,0.71623 l -0.415475,30.95832 c 0,0 -0.807628,0.495 -0.788068,1.12602 0.01955,0.63102 0.340716,0.80585 0.323496,1.37616 -0.01722,0.57036 -1.116599,0.008 -1.084688,0.55862 0.03191,0.55108 1.018024,1.11207 1.018024,1.11207 l 0.06666,3.67471 c 0,0 -0.997346,0.0682 -0.985988,0.50695 0.01135,0.43871 0.852662,0.56224 0.852662,0.56224 l -0.06718,2.87321 c 0,0 -1.269331,0.73499 -1.20251,1.33635 0.06682,0.60135 1.135848,1.4702 1.135848,1.4702 l 0.06666,1.06918 c 0,0 -0.267322,-0.20075 -0.86868,0.13333 -0.601356,0.33409 -0.400492,1.40301 -0.400492,1.40301 0,0 -1.470194,-0.267 -1.470194,1.00252 0,1.26954 1.403014,0.93535 1.403014,0.93535 l -0.133324,1.26969 -1.470194,0.0667 c 0,0 -0.601514,0.73489 -0.601514,1.60352 0,0.86862 0.601514,0.53485 0.601514,0.53485 l -0.401011,8.28529 -1.60352,2.6727 0.133842,4.27622 z"
       id="path1441"
       inkscape:connector-curvature="0"
       sodipodi:nodetypes="ccccscccsccccccccccccccccccccccccccccccccccccczccccccccccccccccccccccccccccsccccccccccscccsccccc" />
    <g
       aria-label="caps"
       transform="matrix(0.45264648,0,0,0.55200272,-62.963564,-16.374861)"
       style="font-style:normal;font-variant:normal;font-weight:normal;font-stretch:normal;font-size:192px;line-height:1.25;font-family:'Accanthis ADF Std No2';-inkscape-font-specification:'Accanthis ADF Std No2';letter-spacing:0px;word-spacing:0px;fill:#000000;fill-opacity:1;stroke:none"
       id="flowRoot1459">
      <path
         d="m 454.952,425.26117 c 0,-1.152 -0.96,-2.496 -2.304,-2.496 -0.768,0 -1.92,0.576 -2.88,1.728 -5.184,5.952 -12.096,11.328 -20.352,11.328 -22.848,0 -27.456,-25.152 -27.456,-43.968 0,-12.096 5.184,-34.56 20.736,-34.56 8.064,0 17.088,11.712 24.384,11.712 3.072,0 5.952,-2.688 5.952,-5.76 0,-9.216 -21.312,-10.944 -27.264,-10.944 -24.768,0 -40.32,21.504 -40.32,44.16 0,22.656 16.128,44.16 40.32,44.16 20.736,0 29.184,-13.44 29.184,-15.36 z"
         id="path1506"
         inkscape:connector-curvature="0" />
      <path
         d="m 516.917,422.38117 c 0,7.104 -13.056,13.44 -19.2,13.44 -9.6,0 -16.512,-6.528 -16.512,-16.512 0,-4.8 0.96,-12.096 7.488,-14.784 l 28.224,-10.944 z m -22.272,18.24 c 8.448,0 17.28,-3.648 22.272,-10.752 v 0.384 c 0,5.952 5.76,10.368 11.52,10.368 4.8,0 11.328,-1.728 11.52,-7.68 -0.96,1.344 -2.304,2.688 -4.032,2.688 -4.416,0 -4.608,-7.68 -4.608,-10.56 v -47.808 c 0,-20.352 -17.472,-24.96 -34.368,-24.96 -7.872,0 -25.92,6.336 -25.92,16.32 0,2.88 2.496,5.568 5.568,5.568 6.72,0 8.448,-16.896 23.424,-16.896 13.248,0 16.896,12.672 16.896,23.808 v 7.68 l -38.208,14.592 c -8.064,3.072 -12.864,9.216 -12.864,17.472 0,15.36 15.552,19.776 28.8,19.776 z"
         id="path1508"
         inkscape:connector-curvature="0" />
      <path
         d="m 574.577,426.22117 v -52.8 c 0,-10.752 9.984,-16.128 19.584,-16.128 23.232,0 27.456,24.768 27.456,43.776 0,12.672 -9.408,34.752 -24.384,34.752 -8.256,0 -16.704,-4.032 -22.656,-9.6 z m 1.728,-73.92 c -8.64,0 -15.936,8.832 -26.688,9.216 l 10.56,9.984 v 105.6 c 0,3.648 -1.728,4.608 -4.032,4.8 h -5.568 c -0.576,0.768 -0.768,1.536 -0.768,2.304 -0.192,0.768 0.192,1.536 0.768,2.496 h 33.6 c 0.576,-0.576 0.96,-1.536 0.96,-2.304 0,-0.96 -0.192,-1.728 -0.96,-2.496 h -5.76 c -2.304,0 -3.84,-1.152 -3.84,-4.8 v -46.08 c 5.184,5.184 15.936,9.6 23.232,9.6 24.576,0 40.32,-21.504 40.32,-44.16 0,-23.04 -15.936,-44.16 -40.32,-44.16 -9.408,0 -14.976,2.112 -22.848,6.912 v -0.768 c 0,-1.728 0.96,-4.416 1.344,-6.144 z"
         id="path1510"
         inkscape:connector-curvature="0" />
      <path
         d="m 688.865,352.30117 c -15.168,0 -32.448,4.224 -32.448,22.08 0,28.224 48.384,24.576 48.384,45.12 0,11.904 -11.328,16.32 -21.504,16.32 -8.064,0 -16.896,-12.48 -24.192,-12.48 -3.648,0 -6.144,3.264 -6.144,6.72 0,10.176 20.736,10.56 27.456,10.56 18.048,0 37.056,-2.304 37.056,-24.192 0,-29.952 -47.808,-23.04 -47.808,-44.928 0,-9.216 7.488,-14.208 16.128,-14.208 7.872,0 16.128,11.904 22.848,11.904 3.264,0 5.952,-4.032 5.952,-7.104 0,-8.832 -20.16,-9.792 -25.728,-9.792 z"
         id="path1512"
         inkscape:connector-curvature="0" />
    </g>
  </g>
</svg>
